<svg id="Layer_1" data-name="Layer 1" xmlns="http://www.w3.org/2000/svg" viewBox="0 0 160 160"><title>Artboard 1</title><rect x="12.31" y="18.62" width="136" height="122" style="fill:none"/><g id="ionic"><path d="M104.76,52.69a24.56,24.56,0,1,0,24.56,24.56h0A24.6,24.6,0,0,0,104.76,52.69Z" style="fill:#478aff"/><circle cx="140.02" cy="43.68" r="11.19" style="fill:#478aff"/><path d="M153.79,54.93l-.47-1-.73.85a16.9,16.9,0,0,1-6.75,4.65l-.74.26.3.74a44,44,0,1,1-21.78-22.88l.69.33.3-.74a16.82,16.82,0,0,1,5-6.51l.88-.73-1-.53a53.31,53.31,0,0,0-24.7-6,53.88,53.88,0,1,0,49,31.52Z" style="fill:#478aff"/></g><polygon points="51.47 23.03 51.47 23.03 51.47 23.03 1 41.03 8.7 107.77 51.47 131.46 51.47 131.46 51.47 131.46 94.25 107.77 101.94 41.03 51.47 23.03" style="fill:#db1e33"/><polygon points="51.47 23.03 51.47 35.07 51.47 35.02 51.47 89.93 51.47 89.93 51.47 131.46 51.47 131.46 94.25 107.77 101.94 41.03 51.47 23.03" style="fill:#c22032"/><path d="M51.47,35,19.92,105.76H31.68L38,89.93H64.81l6.34,15.83H82.92L51.47,35Zm9.22,45.15H42.26L51.47,58Z" style="fill:#fff"/></svg>