<svg id="Layer_1" data-name="Layer 1" xmlns="http://www.w3.org/2000/svg" xmlns:xlink="http://www.w3.org/1999/xlink" viewBox="0 0 555 68.14"><defs><clipPath id="clip-path" transform="translate(-29.57 -361.49)"><rect x="29.66" y="361.53" width="64" height="68" style="fill:none"/></clipPath></defs><title>title</title><g style="clip-path:url(#clip-path)"><path d="M61.57,407.59a10,10,0,1,0-10.24-10A10.13,10.13,0,0,0,61.57,407.59Z" transform="translate(-29.57 -361.49)" style="fill:#fff"/><path d="M90.71,391.32a29.66,29.66,0,1,1-35.45-22.54c.79-.19,1.38-.19,2.17-.39a7.3,7.3,0,0,0,1.38,2.35,5.36,5.36,0,0,0,7.68,0,5.88,5.88,0,0,0,1.57-3.13,5.46,5.46,0,0,0-10.83-1.37,31.85,31.85,0,1,0,36,27.24c-.2-.79-.2-1.57-.39-2.36a30.6,30.6,0,0,0-8.67-15.28A31.13,31.13,0,0,1,90.71,391.32ZM65.9,367.22a2.74,2.74,0,0,1-1,2,3.36,3.36,0,0,1-4.53,0,3.16,3.16,0,0,1-1-2.16,2.65,2.65,0,0,1,1-2.35,3.34,3.34,0,0,1,4.53,0A4.6,4.6,0,0,1,65.9,367.22Z" transform="translate(-29.57 -361.49)" style="fill:#fff"/></g><path d="M122.3,374.07a3.53,3.53,0,0,1-1.24,2.91,5.48,5.48,0,0,1-3.55,1h-1.26v4.54h-2V370.4h3.49a5.25,5.25,0,0,1,3.4.93A3.32,3.32,0,0,1,122.3,374.07Zm-6,2.26h1a3.77,3.77,0,0,0,2.25-.54,1.93,1.93,0,0,0,.71-1.66,1.89,1.89,0,0,0-.64-1.56,3.18,3.18,0,0,0-2-.51h-1.38Zm16.41,1.6a5,5,0,0,1-1.15,3.51,4.14,4.14,0,0,1-3.22,1.26,4.38,4.38,0,0,1-2.27-.58,3.8,3.8,0,0,1-1.52-1.67,5.73,5.73,0,0,1-.53-2.52,5,5,0,0,1,1.14-3.49,4.18,4.18,0,0,1,3.23-1.25,4.08,4.08,0,0,1,3.16,1.28A5,5,0,0,1,132.66,377.93Zm-6.68,0c0,2.12.78,3.18,2.35,3.18s2.32-1.06,2.32-3.18-.78-3.15-2.34-3.15a2,2,0,0,0-1.78.81A4.15,4.15,0,0,0,126,377.93Zm16.46,4.6-1.19-4.28c-.14-.45-.4-1.51-.78-3.16h-.07c-.32,1.49-.58,2.55-.77,3.18l-1.22,4.26h-2.16l-2.57-9.18h2l1.17,4.53c.27,1.12.46,2.07.57,2.87h.05c0-.4.14-.87.25-1.39a10.79,10.79,0,0,1,.3-1.18l1.39-4.83h2.14l1.35,4.83c.09.28.19.69.31,1.25a10.35,10.35,0,0,1,.23,1.3h.06a28.14,28.14,0,0,1,.58-2.85l1.19-4.53h2l-2.59,9.18Zm10.37.17a4.43,4.43,0,0,1-3.35-1.25,4.76,4.76,0,0,1-1.2-3.44,5.2,5.2,0,0,1,1.12-3.54,3.88,3.88,0,0,1,3.08-1.28,3.8,3.8,0,0,1,2.87,1.1,4.24,4.24,0,0,1,1,3v1.05h-6.11a3,3,0,0,0,.72,2.06,2.5,2.5,0,0,0,1.92.72,7.23,7.23,0,0,0,1.51-.15,8.49,8.49,0,0,0,1.51-.52v1.59a6.66,6.66,0,0,1-1.45.48A9.14,9.14,0,0,1,152.81,382.7Zm-.35-8a2,2,0,0,0-1.5.59,2.85,2.85,0,0,0-.66,1.72h4.17a2.55,2.55,0,0,0-.55-1.72A1.88,1.88,0,0,0,152.46,374.66Zm10.8-1.47a5.18,5.18,0,0,1,1,.08l-.19,1.82a3.57,3.57,0,0,0-.87-.1,2.51,2.51,0,0,0-1.9.76,2.78,2.78,0,0,0-.72,2v4.79h-2v-9.18h1.53l.25,1.62h.1a3.65,3.65,0,0,1,1.19-1.3A2.85,2.85,0,0,1,163.26,373.19Zm16.24,9.34h-2.28l-3-5-3.06,5H169l4-6.29-3.77-5.84h2.21l2.8,4.59,2.81-4.59h2.14l-3.79,5.88Zm6.09.17a3.22,3.22,0,0,1-2.71-1.25h-.12q.12,1.16.12,1.41v3.76h-1.95V373.35h1.58q.06.25.27,1.23h.1a3.05,3.05,0,0,1,2.74-1.39,3.16,3.16,0,0,1,2.67,1.24,6.85,6.85,0,0,1,0,7A3.22,3.22,0,0,1,185.59,382.7Zm-.48-7.92a2.05,2.05,0,0,0-1.7.68,3.6,3.6,0,0,0-.53,2.18v.29a4.35,4.35,0,0,0,.53,2.43,2,2,0,0,0,1.74.75,1.78,1.78,0,0,0,1.56-.83,4.38,4.38,0,0,0,.54-2.37,4.11,4.11,0,0,0-.54-2.33A1.81,1.81,0,0,0,185.11,374.78Zm10.42,7.92a4.4,4.4,0,0,1-3.35-1.25A4.72,4.72,0,0,1,191,378a5.25,5.25,0,0,1,1.12-3.54,3.9,3.9,0,0,1,3.08-1.28,3.82,3.82,0,0,1,2.88,1.1,4.24,4.24,0,0,1,1,3v1.05H193a3.06,3.06,0,0,0,.72,2.06,2.53,2.53,0,0,0,1.92.72,7.16,7.16,0,0,0,1.51-.15,8.23,8.23,0,0,0,1.51-.52v1.59a6.41,6.41,0,0,1-1.44.48A9.22,9.22,0,0,1,195.53,382.7Zm-.36-8a2,2,0,0,0-1.49.59A2.85,2.85,0,0,0,193,377h4.16a2.5,2.5,0,0,0-.55-1.72A1.87,1.87,0,0,0,195.17,374.66Zm10.8-1.47a5,5,0,0,1,1,.08l-.19,1.82a3.44,3.44,0,0,0-.86-.1,2.51,2.51,0,0,0-1.9.76,2.78,2.78,0,0,0-.72,2v4.79h-2v-9.18h1.52l.26,1.62h.1a3.56,3.56,0,0,1,1.19-1.3A2.84,2.84,0,0,1,206,373.19Zm6.1,7.93a4.69,4.69,0,0,0,1.43-.22v1.47a3.8,3.8,0,0,1-.84.23,5.13,5.13,0,0,1-1,.1c-1.85,0-2.77-1-2.77-2.92v-4.95h-1.26V374l1.35-.72.66-1.94h1.21v2h2.61v1.48H210.8v4.91a1.41,1.41,0,0,0,.34,1.05A1.32,1.32,0,0,0,212.07,381.12ZM220,370.4h3.6a6.79,6.79,0,0,1,3.62.73,2.55,2.55,0,0,1,1.12,2.31,2.76,2.76,0,0,1-.55,1.76,2.43,2.43,0,0,1-1.58.89v.09a3.07,3.07,0,0,1,1.88.95,2.87,2.87,0,0,1,.61,1.92,3.1,3.1,0,0,1-1.15,2.56,4.87,4.87,0,0,1-3.17.92H220Zm2,5h1.91a3.3,3.3,0,0,0,1.82-.39,1.51,1.51,0,0,0,.57-1.34,1.35,1.35,0,0,0-.62-1.24,3.89,3.89,0,0,0-2-.38H222Zm0,1.61v3.85h2.11a3.08,3.08,0,0,0,1.88-.48,1.78,1.78,0,0,0,.64-1.51,1.6,1.6,0,0,0-.65-1.4,3.39,3.39,0,0,0-2-.46Zm11,5.51h-2V369.62h2Zm9.28,0-.28-1.2h-.1a2.71,2.71,0,0,1-1.16,1,3.77,3.77,0,0,1-1.71.37,3.39,3.39,0,0,1-2.49-.83,3.43,3.43,0,0,1-.82-2.52v-6h2V379a2.45,2.45,0,0,0,.43,1.59,1.64,1.64,0,0,0,1.35.52,2.13,2.13,0,0,0,1.8-.73,4,4,0,0,0,.58-2.46v-4.58h2v9.18Zm8.32.17a4.42,4.42,0,0,1-3.35-1.25A4.76,4.76,0,0,1,246,378a5.25,5.25,0,0,1,1.12-3.54,3.9,3.9,0,0,1,3.08-1.28,3.82,3.82,0,0,1,2.88,1.1,4.24,4.24,0,0,1,1,3v1.05H248a3,3,0,0,0,.73,2.06,2.5,2.5,0,0,0,1.91.72,7.16,7.16,0,0,0,1.51-.15,8.23,8.23,0,0,0,1.51-.52v1.59a6.41,6.41,0,0,1-1.44.48A9.22,9.22,0,0,1,250.53,382.7Zm-.36-8a2,2,0,0,0-1.49.59A2.85,2.85,0,0,0,248,377h4.16a2.55,2.55,0,0,0-.54-1.72A1.91,1.91,0,0,0,250.17,374.66Z" transform="translate(-29.57 -361.49)" style="fill:#fff"/><path d="M125.59,400.74a7.52,7.52,0,0,0-6,2.51,10.12,10.12,0,0,0-2.17,6.86q0,4.49,2.09,6.94a7.53,7.53,0,0,0,6,2.44,20.58,20.58,0,0,0,5.46-.86V421a16.92,16.92,0,0,1-5.86.89q-5.06,0-7.8-3.07t-2.73-8.7a13.76,13.76,0,0,1,1.31-6.19,9.54,9.54,0,0,1,3.81-4.09,11.59,11.59,0,0,1,5.88-1.44,14.23,14.23,0,0,1,6.28,1.31L130.77,402A12,12,0,0,0,125.59,400.74ZM150.38,413a9.44,9.44,0,0,1-2.11,6.54,7.41,7.41,0,0,1-5.83,2.35,7.66,7.66,0,0,1-4.07-1.08,7.05,7.05,0,0,1-2.75-3.1,10.68,10.68,0,0,1-1-4.71,9.42,9.42,0,0,1,2.09-6.52,7.4,7.4,0,0,1,5.81-2.34,7.21,7.21,0,0,1,5.71,2.39A9.41,9.41,0,0,1,150.38,413Zm-13,0a8.12,8.12,0,0,0,1.31,5,5.22,5.22,0,0,0,7.72,0,8.11,8.11,0,0,0,1.32-5,8,8,0,0,0-1.32-5,5.29,5.29,0,0,0-7.74,0A8.1,8.1,0,0,0,137.34,413Zm39.43,8.57V410.39a4.62,4.62,0,0,0-.87-3.06,3.37,3.37,0,0,0-2.72-1,4.38,4.38,0,0,0-3.58,1.39,6.61,6.61,0,0,0-1.16,4.28v9.56h-2.59V410.39a4.62,4.62,0,0,0-.87-3.06,3.4,3.4,0,0,0-2.74-1,4.26,4.26,0,0,0-3.58,1.47c-.75,1-1.12,2.56-1.12,4.78v9h-2.6V404.41h2.11l.43,2.34h.12a5.16,5.16,0,0,1,2.06-1.95,6.38,6.38,0,0,1,3-.7q4,0,5.25,2.9H168a5.47,5.47,0,0,1,2.22-2.12,6.89,6.89,0,0,1,3.31-.78,5.73,5.73,0,0,1,4.34,1.5c1,1,1.46,2.57,1.46,4.76v11.17Zm15.92.32a7.67,7.67,0,0,1-3.06-.61,5.81,5.81,0,0,1-2.31-1.91h-.19a22.07,22.07,0,0,1,.19,2.84v7.05h-2.59V404.41h2.11l.35,2.34h.13a6.11,6.11,0,0,1,2.33-2,7,7,0,0,1,3-.62,6.28,6.28,0,0,1,5.25,2.32,12.38,12.38,0,0,1,0,13.1A6.34,6.34,0,0,1,192.69,421.85Zm-.37-15.55a4.6,4.6,0,0,0-3.8,1.45,7.49,7.49,0,0,0-1.2,4.63V413c0,2.4.4,4.13,1.2,5.17a4.59,4.59,0,0,0,3.86,1.54,4,4,0,0,0,3.47-1.79,8.52,8.52,0,0,0,1.27-5,8.13,8.13,0,0,0-1.27-4.9A4.1,4.1,0,0,0,192.32,406.3ZM219.13,413A9.44,9.44,0,0,1,217,419.5a7.41,7.41,0,0,1-5.83,2.35,7.66,7.66,0,0,1-4.07-1.08,7.05,7.05,0,0,1-2.75-3.1,10.68,10.68,0,0,1-1-4.71,9.42,9.42,0,0,1,2.09-6.52,7.4,7.4,0,0,1,5.81-2.34,7.21,7.21,0,0,1,5.71,2.39A9.41,9.41,0,0,1,219.13,413Zm-13,0a8.12,8.12,0,0,0,1.31,5,5.22,5.22,0,0,0,7.72,0,8.11,8.11,0,0,0,1.32-5,8,8,0,0,0-1.32-5,5.29,5.29,0,0,0-7.74,0A8.1,8.1,0,0,0,206.09,413Zm29.32,8.57V410.46a4.46,4.46,0,0,0-.95-3.13,3.88,3.88,0,0,0-3-1,4.91,4.91,0,0,0-3.94,1.45q-1.24,1.46-1.25,4.8v9h-2.6V404.41h2.11l.43,2.34h.12a5.27,5.27,0,0,1,2.24-1.95,7.13,7.13,0,0,1,3.2-.7,6.47,6.47,0,0,1,4.65,1.5c1.05,1,1.57,2.57,1.57,4.76v11.17Zm15.18.32a7.84,7.84,0,0,1-6-2.32,9,9,0,0,1-2.19-6.42,9.94,9.94,0,0,1,2-6.58,6.79,6.79,0,0,1,5.48-2.43,6.44,6.44,0,0,1,5.1,2.12,8.1,8.1,0,0,1,1.87,5.58v1.64H245.09A6.8,6.8,0,0,0,246.6,418a5.31,5.31,0,0,0,4.08,1.56,13.65,13.65,0,0,0,5.47-1.16v2.32a14,14,0,0,1-2.61.84A13.86,13.86,0,0,1,250.59,421.85Zm-.71-15.58a4.27,4.27,0,0,0-3.29,1.34,6.16,6.16,0,0,0-1.44,3.72h8.95a5.69,5.69,0,0,0-1.09-3.75A3.86,3.86,0,0,0,249.88,406.27ZM273,421.53V410.46a4.51,4.51,0,0,0-1-3.13,3.88,3.88,0,0,0-3-1,4.93,4.93,0,0,0-3.94,1.45q-1.25,1.46-1.25,4.8v9h-2.59V404.41h2.11l.42,2.34H264a5.24,5.24,0,0,1,2.23-1.95,7.19,7.19,0,0,1,3.2-.7,6.48,6.48,0,0,1,4.66,1.5c1,1,1.56,2.57,1.56,4.76v11.17Zm13.47-1.82a9.56,9.56,0,0,0,1.33-.1,7.65,7.65,0,0,0,1-.22v2a5.09,5.09,0,0,1-1.25.33,9.06,9.06,0,0,1-1.47.14q-5,0-5-5.24V406.42h-2.45v-1.25l2.45-1.07,1.1-3.66h1.5v4h5v2h-5V416.5a3.48,3.48,0,0,0,.73,2.38A2.57,2.57,0,0,0,286.51,419.71Zm28.84,1.82-2.84-7.26h-9.16l-2.81,7.26h-2.69l9-22.93h2.24l9,22.93Zm-3.67-9.65L309,404.8c-.34-.9-.7-2-1.06-3.3a31.48,31.48,0,0,1-1,3.3l-2.69,7.08Zm24.05-6.53a6.42,6.42,0,0,1-2.38,5.34c-1.57,1.24-3.83,1.86-6.76,1.86H323.9v9h-2.66V398.69h5.92Q335.73,398.69,335.73,405.35Zm-11.83,4.92h2.39c2.35,0,4.06-.38,5.11-1.14a4.21,4.21,0,0,0,1.58-3.66,3.93,3.93,0,0,0-1.49-3.37,7.74,7.74,0,0,0-4.62-1.11h-3Zm16.62,11.26V398.69h2.66v22.84ZM376,409.89q0,5.66-3.08,8.66c-2,2-5,3-8.83,3h-6.33V398.69h7c3.55,0,6.32,1,8.28,2.95S376,406.36,376,409.89Zm-2.82.1q0-4.47-2.25-6.74T364.29,401h-3.86v18.25h3.23q4.75,0,7.14-2.33C372.4,415.35,373.19,413,373.19,410Zm22.32,3a9.49,9.49,0,0,1-2.11,6.54,7.43,7.43,0,0,1-5.83,2.35,7.72,7.72,0,0,1-4.08-1.08,7.11,7.11,0,0,1-2.75-3.1,10.82,10.82,0,0,1-1-4.71,9.38,9.38,0,0,1,2.1-6.52,7.38,7.38,0,0,1,5.81-2.34,7.19,7.19,0,0,1,5.7,2.39A9.36,9.36,0,0,1,395.51,413Zm-13.05,0a8.19,8.19,0,0,0,1.31,5,5.22,5.22,0,0,0,7.72,0,8,8,0,0,0,1.33-5,7.88,7.88,0,0,0-1.33-5,4.61,4.61,0,0,0-3.89-1.7,4.56,4.56,0,0,0-3.84,1.67A8,8,0,0,0,382.46,413Zm24.45,8.89a7.33,7.33,0,0,1-5.76-2.28,9.47,9.47,0,0,1-2-6.49c0-2.86.68-5.08,2.06-6.64a7.47,7.47,0,0,1,5.91-2.34,12.1,12.1,0,0,1,2.46.26,8.16,8.16,0,0,1,1.94.63l-.8,2.2a10.8,10.8,0,0,0-1.87-.56,8,8,0,0,0-1.8-.24q-5.22,0-5.22,6.66a8,8,0,0,0,1.27,4.84,4.43,4.43,0,0,0,3.78,1.69,11.61,11.61,0,0,0,4.39-.92V421A9.4,9.4,0,0,1,406.91,421.85Zm10.85-17.44v11.11a4.43,4.43,0,0,0,.95,3.12,3.88,3.88,0,0,0,3,1,4.86,4.86,0,0,0,3.93-1.46q1.25-1.47,1.25-4.8v-9h2.59v17.12h-2.14l-.38-2.29h-.14a5.13,5.13,0,0,1-2.21,1.93,7.39,7.39,0,0,1-3.22.68,6.57,6.57,0,0,1-4.69-1.49q-1.55-1.49-1.55-4.75v-11.2Zm39,17.12V410.39a4.62,4.62,0,0,0-.87-3.06,3.36,3.36,0,0,0-2.72-1,4.39,4.39,0,0,0-3.58,1.39,6.61,6.61,0,0,0-1.15,4.28v9.56h-2.6V410.39a4.62,4.62,0,0,0-.87-3.06,3.4,3.4,0,0,0-2.74-1,4.27,4.27,0,0,0-3.58,1.47c-.75,1-1.12,2.56-1.12,4.78v9H435V404.41h2.11l.42,2.34h.12a5.16,5.16,0,0,1,2.06-1.95,6.38,6.38,0,0,1,3-.7q4,0,5.25,2.9h.13a5.47,5.47,0,0,1,2.22-2.12,6.89,6.89,0,0,1,3.31-.78,5.73,5.73,0,0,1,4.34,1.5c1,1,1.46,2.57,1.46,4.76v11.17Zm15.19.32a7.87,7.87,0,0,1-6-2.32,9,9,0,0,1-2.19-6.42,9.94,9.94,0,0,1,2-6.58,6.79,6.79,0,0,1,5.48-2.43,6.42,6.42,0,0,1,5.09,2.12,8.1,8.1,0,0,1,1.88,5.58v1.64h-11.8A6.8,6.8,0,0,0,468,418a5.31,5.31,0,0,0,4.08,1.56,13.61,13.61,0,0,0,5.46-1.16v2.32a13.57,13.57,0,0,1-2.61.84A13.8,13.8,0,0,1,472,421.85Zm-.7-15.58a4.27,4.27,0,0,0-3.3,1.34,6.29,6.29,0,0,0-1.44,3.72h9a5.69,5.69,0,0,0-1.1-3.75A3.85,3.85,0,0,0,471.29,406.27Zm23.15,15.26V410.46a4.46,4.46,0,0,0-.95-3.13,3.86,3.86,0,0,0-3-1,4.92,4.92,0,0,0-3.94,1.45q-1.24,1.46-1.25,4.8v9h-2.59V404.41h2.11l.42,2.34h.12a5.27,5.27,0,0,1,2.24-1.95,7.13,7.13,0,0,1,3.2-.7,6.51,6.51,0,0,1,4.66,1.5c1,1,1.56,2.57,1.56,4.76v11.17Zm13.47-1.82a9.56,9.56,0,0,0,1.33-.1,7.5,7.5,0,0,0,1-.22v2a5.09,5.09,0,0,1-1.25.33,9.06,9.06,0,0,1-1.47.14q-5,0-5-5.24V406.42h-2.45v-1.25l2.45-1.07,1.09-3.66h1.5v4h5v2h-5V416.5a3.48,3.48,0,0,0,.74,2.38A2.56,2.56,0,0,0,507.91,419.71Zm16.32,1.82-.52-2.43h-.12a7.22,7.22,0,0,1-2.57,2.18,7.72,7.72,0,0,1-3.17.57,5.73,5.73,0,0,1-4-1.32,4.79,4.79,0,0,1-1.44-3.73q0-5.19,8.3-5.44l2.91-.09v-1.06a4.28,4.28,0,0,0-.88-3,3.49,3.49,0,0,0-2.76-1,11.37,11.37,0,0,0-4.85,1.31l-.79-2a12.32,12.32,0,0,1,5.79-1.47,6.48,6.48,0,0,1,4.53,1.36,5.65,5.65,0,0,1,1.49,4.36v11.68Zm-5.86-1.82a5.24,5.24,0,0,0,3.79-1.33,4.9,4.9,0,0,0,1.39-3.72v-1.55l-2.59.11a9.43,9.43,0,0,0-4.47,1,2.89,2.89,0,0,0-1.36,2.64A2.66,2.66,0,0,0,516,419,3.56,3.56,0,0,0,518.37,419.71Zm18.67,0a9.56,9.56,0,0,0,1.33-.1,7.65,7.65,0,0,0,1-.22v2a5.09,5.09,0,0,1-1.25.33,9.06,9.06,0,0,1-1.47.14q-5,0-5-5.24V406.42h-2.45v-1.25l2.45-1.07,1.1-3.66h1.5v4h5v2h-5V416.5a3.48,3.48,0,0,0,.73,2.38A2.57,2.57,0,0,0,537,419.71Zm8.37,1.82h-2.59V404.41h2.59Zm-2.81-21.76a1.7,1.7,0,0,1,.44-1.3,1.5,1.5,0,0,1,1.09-.42,1.53,1.53,0,0,1,1.08.42,1.71,1.71,0,0,1,.45,1.3,1.75,1.75,0,0,1-.45,1.31,1.53,1.53,0,0,1-1.08.42,1.5,1.5,0,0,1-1.09-.42A1.79,1.79,0,0,1,542.6,399.77ZM565.69,413a9.48,9.48,0,0,1-2.1,6.54,7.43,7.43,0,0,1-5.83,2.35,7.72,7.72,0,0,1-4.08-1.08,7.05,7.05,0,0,1-2.75-3.1,10.68,10.68,0,0,1-1-4.71,9.42,9.42,0,0,1,2.09-6.52,7.42,7.42,0,0,1,5.82-2.34,7.21,7.21,0,0,1,5.7,2.39A9.36,9.36,0,0,1,565.69,413Zm-13,0a8.19,8.19,0,0,0,1.31,5,5.22,5.22,0,0,0,7.72,0,8.11,8.11,0,0,0,1.33-5,8,8,0,0,0-1.33-5,5.29,5.29,0,0,0-7.74,0A8.1,8.1,0,0,0,552.65,413ZM582,421.53V410.46a4.46,4.46,0,0,0-1-3.13,3.86,3.86,0,0,0-3-1,4.92,4.92,0,0,0-3.94,1.45q-1.25,1.46-1.25,4.8v9h-2.59V404.41h2.11l.42,2.34h.12a5.27,5.27,0,0,1,2.24-1.95,7.16,7.16,0,0,1,3.2-.7,6.49,6.49,0,0,1,4.66,1.5c1,1,1.56,2.57,1.56,4.76v11.17Z" transform="translate(-29.57 -361.49)" style="fill:#fff"/></svg>