<svg id="Layer_1" data-name="Layer 1" xmlns="http://www.w3.org/2000/svg" xmlns:xlink="http://www.w3.org/1999/xlink" viewBox="0 0 455.27 107.48"><defs><clipPath id="clip-path" transform="translate(0 0.04)"><rect x="3.11" width="50" height="53" style="fill:none"/></clipPath></defs><title>titleSM</title><g style="clip-path:url(#clip-path)"><path d="M28,35.89a7.79,7.79,0,1,0-8-7.79A7.89,7.89,0,0,0,28,35.89Z" transform="translate(0 0.04)" style="fill:#fff"/><path d="M50.8,23.22A23.17,23.17,0,1,1,23.11,5.65c.61-.15,1.07-.15,1.69-.3a5.67,5.67,0,0,0,1.08,1.83,4.2,4.2,0,0,0,6,0,4.73,4.73,0,0,0,1.23-2.45,4.26,4.26,0,0,0-8.46-1.06,24.82,24.82,0,1,0,6.77,49.18A24.84,24.84,0,0,0,52.8,24.9c-.15-.61-.15-1.23-.31-1.84a23.73,23.73,0,0,0-6.77-11.91A24.3,24.3,0,0,1,50.8,23.22ZM31.42,4.43A2.13,2.13,0,0,1,30.65,6a2.64,2.64,0,0,1-3.54,0,2.46,2.46,0,0,1-.77-1.68,2,2,0,0,1,.77-1.84,2.63,2.63,0,0,1,3.54,0A3.61,3.61,0,0,1,31.42,4.43Z" transform="translate(0 0.04)" style="fill:#fff"/></g><path d="M88.55,20.72a9.59,9.59,0,0,1-3.57,8q-3.54,2.79-10.15,2.79h-4V45h-4V10.73H75.7Q88.54,10.73,88.55,20.72ZM70.8,28.1h3.59c3.53,0,6.09-.57,7.66-1.71s2.37-3,2.37-5.48a5.91,5.91,0,0,0-2.23-5.07Q80,14.18,75.26,14.18H70.8Zm46.53,4q0,6.28-3.17,9.82a11.14,11.14,0,0,1-8.74,3.52,11.56,11.56,0,0,1-6.12-1.62,10.66,10.66,0,0,1-4.12-4.64,16.13,16.13,0,0,1-1.45-7.08q0-6.27,3.14-9.77a11.09,11.09,0,0,1,8.71-3.52,10.84,10.84,0,0,1,8.56,3.59Q117.32,26,117.33,32.13Zm-19.57,0q0,4.92,2,7.5a7.82,7.82,0,0,0,11.58,0q2-2.58,2-7.53t-2-7.43a7.91,7.91,0,0,0-11.6,0C98.4,26.33,97.76,28.82,97.76,32.13ZM145.15,45l-4.71-15.07c-.3-.92-.86-3-1.67-6.28h-.19q-.93,4.09-1.64,6.33l-4.85,15h-4.5l-7-25.69h4.08q2.49,9.69,3.78,14.74a61,61,0,0,1,1.5,6.83h.18c.18-.9.45-2,.82-3.45s.73-2.55,1-3.38l4.71-14.74h4.22l4.59,14.74a50.42,50.42,0,0,1,1.79,6.78h.18c.07-.56.23-1.43.5-2.6s1.91-7.48,4.89-18.92h4L149.76,45Zm27.23.47a11.84,11.84,0,0,1-9-3.47q-3.28-3.47-3.28-9.63t3.05-9.87a10.18,10.18,0,0,1,8.22-3.66A9.68,9.68,0,0,1,179,22a12.11,12.11,0,0,1,2.82,8.37v2.46h-17.7c.08,3,.84,5.3,2.27,6.87a8,8,0,0,0,6.12,2.34,20.75,20.75,0,0,0,8.2-1.73V43.8a19.27,19.27,0,0,1-3.91,1.27A20.81,20.81,0,0,1,172.38,45.47Zm-1-23.37a6.38,6.38,0,0,0-5,2,9.32,9.32,0,0,0-2.16,5.58h13.43A8.48,8.48,0,0,0,176,24.07,5.75,5.75,0,0,0,171.33,22.1Zm28.87-3.26a15.75,15.75,0,0,1,3.07.28l-.54,3.61a13.51,13.51,0,0,0-2.81-.35,6.89,6.89,0,0,0-5.34,2.53,9.27,9.27,0,0,0-2.21,6.31V45h-3.89V19.31h3.21l.45,4.76h.19a11.35,11.35,0,0,1,3.44-3.87A7.82,7.82,0,0,1,200.2,18.84ZM243.94,45h-4.53L230.2,29.93,220.83,45h-4.22L228,27.09,217.38,10.73h4.41L230.3,24.3l8.57-13.57h4.25L232.5,27Zm16.26.47a11.3,11.3,0,0,1-4.59-.92,8.66,8.66,0,0,1-3.47-2.85h-.28a33.92,33.92,0,0,1,.28,4.26V56.53h-3.89V19.31h3.16l.54,3.52h.19a9,9,0,0,1,3.49-3,10.69,10.69,0,0,1,4.57-.94,9.47,9.47,0,0,1,7.88,3.5q2.79,3.48,2.79,9.79T268,42A9.51,9.51,0,0,1,260.2,45.47Zm-.56-23.32c-2.63,0-4.52.73-5.7,2.18s-1.77,3.76-1.8,6.94v.86q0,5.41,1.8,7.76t5.79,2.32a6,6,0,0,0,5.21-2.69,12.79,12.79,0,0,0,1.89-7.43q0-4.82-1.89-7.36A6.17,6.17,0,0,0,259.64,22.15Zm28.9,23.32a11.84,11.84,0,0,1-9-3.47q-3.29-3.47-3.28-9.63t3-9.87a10.2,10.2,0,0,1,8.23-3.66A9.68,9.68,0,0,1,295.17,22,12.11,12.11,0,0,1,298,30.4v2.46H280.29c.08,3,.83,5.3,2.27,6.87a7.94,7.94,0,0,0,6.12,2.34,20.79,20.79,0,0,0,8.2-1.73V43.8A19.47,19.47,0,0,1,293,45.07,20.87,20.87,0,0,1,288.54,45.47ZM287.48,22.1a6.36,6.36,0,0,0-4.94,2,9.32,9.32,0,0,0-2.16,5.58h13.43a8.53,8.53,0,0,0-1.64-5.63A5.77,5.77,0,0,0,287.48,22.1Zm28.88-3.26a15.82,15.82,0,0,1,3.07.28l-.54,3.61a13.51,13.51,0,0,0-2.81-.35,6.92,6.92,0,0,0-5.35,2.53,9.26,9.26,0,0,0-2.2,6.31V45h-3.89V19.31h3.21l.45,4.76h.18a11.37,11.37,0,0,1,3.45-3.87A7.79,7.79,0,0,1,316.36,18.84Zm16.17,23.42a14.23,14.23,0,0,0,2-.14,14.69,14.69,0,0,0,1.53-.33v3a7.34,7.34,0,0,1-1.88.49,13.09,13.09,0,0,1-2.2.21q-7.46,0-7.46-7.85V22.34h-3.68V20.46l3.68-1.62,1.64-5.48h2.25v5.95h7.46v3H328.4V37.45A5.19,5.19,0,0,0,329.51,41,3.85,3.85,0,0,0,332.53,42.26Zm21.54-31.53h10.17q7.08,0,10.22,2.07t3.16,6.51a7.88,7.88,0,0,1-1.54,5,6.9,6.9,0,0,1-4.46,2.51v.24a8.74,8.74,0,0,1,5.3,2.69,8.06,8.06,0,0,1,1.71,5.42,8.84,8.84,0,0,1-3.23,7.24q-3.21,2.6-9,2.6H354.07Zm5.6,14.16h5.39a9.33,9.33,0,0,0,5.13-1.1,4.3,4.3,0,0,0,1.62-3.8,3.79,3.79,0,0,0-1.76-3.49,10.8,10.8,0,0,0-5.53-1.08h-4.85Zm0,4.55V40.29h5.95a8.77,8.77,0,0,0,5.3-1.34,5,5,0,0,0,1.8-4.26,4.51,4.51,0,0,0-1.82-4,9.69,9.69,0,0,0-5.56-1.29Zm31,15.56h-5.51V8.53h5.51Zm26.18,0-.78-3.4h-.28a7.82,7.82,0,0,1-3.28,2.84,10.93,10.93,0,0,1-4.83,1q-4.71,0-7-2.35c-1.54-1.56-2.32-3.92-2.32-7.1V19.08h5.56v16a6.94,6.94,0,0,0,1.22,4.48A4.67,4.67,0,0,0,408.94,41,6,6,0,0,0,414,39c1.1-1.39,1.64-3.71,1.64-7V19.08h5.53V45Zm23.51.47q-6.06,0-9.47-3.52t-3.4-9.72q0-6.36,3.16-10a10.94,10.94,0,0,1,8.7-3.63,10.69,10.69,0,0,1,8.11,3.12q3,3.11,3,8.57v3H433.17a8.56,8.56,0,0,0,2,5.81,7.1,7.1,0,0,0,5.41,2,20.48,20.48,0,0,0,4.27-.42,22.45,22.45,0,0,0,4.26-1.46v4.48a17.09,17.09,0,0,1-4.07,1.36A24.71,24.71,0,0,1,440.37,45.47Zm-1-22.69a5.57,5.57,0,0,0-4.22,1.67,8,8,0,0,0-1.88,4.85H445a7.11,7.11,0,0,0-1.55-4.85A5.26,5.26,0,0,0,439.36,22.78Z" transform="translate(0 0.04)" style="fill:#fff"/><path d="M10.63,79.85a7.26,7.26,0,0,0-5.77,2.44,9.81,9.81,0,0,0-2.11,6.65,10.08,10.08,0,0,0,2,6.72A7.3,7.3,0,0,0,10.6,98a19.68,19.68,0,0,0,5.28-.84v2.26a16.44,16.44,0,0,1-5.68.86q-4.89,0-7.55-3T0,88.9a13.34,13.34,0,0,1,1.27-6,9.33,9.33,0,0,1,3.69-4,11.35,11.35,0,0,1,5.7-1.39,13.78,13.78,0,0,1,6.08,1.27L15.65,81A11.81,11.81,0,0,0,10.63,79.85Zm24,11.84a9.14,9.14,0,0,1-2,6.34A7.17,7.17,0,0,1,27,100.3a7.45,7.45,0,0,1-3.95-1,7,7,0,0,1-2.67-3,10.5,10.5,0,0,1-.93-4.57,9.11,9.11,0,0,1,2-6.31,7.15,7.15,0,0,1,5.63-2.27,7,7,0,0,1,5.53,2.31A9.13,9.13,0,0,1,34.65,91.69ZM22,91.69a7.85,7.85,0,0,0,1.27,4.84A4.42,4.42,0,0,0,27,98.2a4.44,4.44,0,0,0,3.74-1.65A7.82,7.82,0,0,0,32,91.69a7.63,7.63,0,0,0-1.28-4.8A4.48,4.48,0,0,0,27,85.24a4.4,4.4,0,0,0-3.72,1.62A7.78,7.78,0,0,0,22,91.69ZM60.21,100V89.21a4.5,4.5,0,0,0-.84-3,3.27,3.27,0,0,0-2.64-1,4.23,4.23,0,0,0-3.46,1.35,6.39,6.39,0,0,0-1.12,4.15V100H49.63V89.21a4.5,4.5,0,0,0-.84-3,3.28,3.28,0,0,0-2.65-1,4.14,4.14,0,0,0-3.47,1.42c-.73.94-1.09,2.49-1.09,4.64V100H39.07V83.41h2l.41,2.27h.12a4.93,4.93,0,0,1,2-1.89,6.12,6.12,0,0,1,2.91-.68q3.89,0,5.08,2.81h.12a5.41,5.41,0,0,1,2.15-2.06,6.73,6.73,0,0,1,3.21-.75,5.57,5.57,0,0,1,4.21,1.45q1.41,1.44,1.41,4.62V100Zm15.43.3a7.23,7.23,0,0,1-3-.59,5.67,5.67,0,0,1-2.24-1.84h-.18a22.24,22.24,0,0,1,.18,2.75v6.83H67.92v-24h2l.35,2.27h.12a5.91,5.91,0,0,1,2.26-2,6.88,6.88,0,0,1,3-.6,6.1,6.1,0,0,1,5.08,2.25,9.88,9.88,0,0,1,1.81,6.33,9.89,9.89,0,0,1-1.84,6.36A6.12,6.12,0,0,1,75.64,100.3Zm-.37-15.06a4.43,4.43,0,0,0-3.67,1.41,7.22,7.22,0,0,0-1.17,4.48v.56q0,3.5,1.17,5a4.43,4.43,0,0,0,3.74,1.5,3.88,3.88,0,0,0,3.36-1.74,8.27,8.27,0,0,0,1.22-4.8,7.91,7.91,0,0,0-1.22-4.75A4,4,0,0,0,75.27,85.24Zm26,6.45a9.19,9.19,0,0,1-2,6.34,7.21,7.21,0,0,1-5.65,2.27,7.45,7.45,0,0,1-4-1,6.89,6.89,0,0,1-2.66-3A10.36,10.36,0,0,1,86,91.69a9.07,9.07,0,0,1,2-6.31,7.12,7.12,0,0,1,5.63-2.27,7,7,0,0,1,5.52,2.31A9.13,9.13,0,0,1,101.25,91.69Zm-12.64,0a7.85,7.85,0,0,0,1.27,4.84,5,5,0,0,0,7.48,0,7.82,7.82,0,0,0,1.29-4.86,7.63,7.63,0,0,0-1.29-4.8,4.46,4.46,0,0,0-3.77-1.65,4.41,4.41,0,0,0-3.72,1.62A7.78,7.78,0,0,0,88.61,91.69ZM117,100V89.27a4.37,4.37,0,0,0-.92-3,3.75,3.75,0,0,0-2.89-1,4.77,4.77,0,0,0-3.82,1.41c-.8.94-1.21,2.49-1.21,4.65V100h-2.51V83.41h2l.41,2.27h.12a5.07,5.07,0,0,1,2.17-1.89,6.88,6.88,0,0,1,3.1-.68A6.27,6.27,0,0,1,118,84.56q1.52,1.44,1.51,4.62V100Zm14.7.3a7.62,7.62,0,0,1-5.81-2.24,8.64,8.64,0,0,1-2.12-6.22,9.59,9.59,0,0,1,2-6.37,6.56,6.56,0,0,1,5.31-2.36A6.21,6.21,0,0,1,136,85.17a7.82,7.82,0,0,1,1.82,5.4v1.59H126.39a6.57,6.57,0,0,0,1.47,4.43,5.12,5.12,0,0,0,4,1.52,13.32,13.32,0,0,0,5.3-1.12v2.24a12.93,12.93,0,0,1-2.53.81A13.1,13.1,0,0,1,131.72,100.3ZM131,85.21a4.17,4.17,0,0,0-3.2,1.3,6.08,6.08,0,0,0-1.39,3.61h8.68a5.54,5.54,0,0,0-1.06-3.64A3.75,3.75,0,0,0,131,85.21ZM153.47,100V89.27a4.37,4.37,0,0,0-.92-3,3.75,3.75,0,0,0-2.89-1,4.77,4.77,0,0,0-3.82,1.41c-.81.94-1.21,2.49-1.21,4.65V100h-2.51V83.41h2l.41,2.27h.12a5.07,5.07,0,0,1,2.17-1.89,6.85,6.85,0,0,1,3.1-.68,6.27,6.27,0,0,1,4.51,1.45Q156,86,156,89.18V100Zm13.05-1.77a9.11,9.11,0,0,0,1.29-.09,9.26,9.26,0,0,0,1-.21v1.92a4.48,4.48,0,0,1-1.21.32,8.5,8.5,0,0,1-1.42.13q-4.82,0-4.82-5.07V85.36H159V84.15l2.37-1,1.06-3.54h1.45v3.84h4.82v2h-4.82v9.77a3.35,3.35,0,0,0,.72,2.3A2.47,2.47,0,0,0,166.52,98.23ZM194.46,100l-2.75-7h-8.87l-2.73,7h-2.6l8.75-22.22h2.16L197.13,100Zm-3.56-9.35-2.57-6.86c-.33-.87-.68-1.93-1-3.2a28.94,28.94,0,0,1-1,3.2l-2.61,6.86Zm23.3-6.33a6.24,6.24,0,0,1-2.3,5.18,10.41,10.41,0,0,1-6.56,1.8h-2.6V100h-2.57V77.87h5.73Q214.2,77.87,214.2,84.32Zm-11.46,4.77h2.32A8.58,8.58,0,0,0,210,88a4.08,4.08,0,0,0,1.53-3.54,3.82,3.82,0,0,0-1.44-3.27,7.49,7.49,0,0,0-4.48-1.07h-2.88ZM218.85,100V77.87h2.57V100Zm34.37-11.28c0,3.66-1,6.45-3,8.39s-4.83,2.89-8.55,2.89h-6.13V77.87h6.78q5.16,0,8,2.86T253.22,88.72Zm-2.72.09c0-2.88-.73-5.06-2.18-6.52s-3.59-2.19-6.45-2.19h-3.74V97.78h3.13c3.07,0,5.38-.76,6.92-2.26S250.5,91.77,250.5,88.81Zm21.61,2.88a9.19,9.19,0,0,1-2,6.34,7.2,7.2,0,0,1-5.65,2.27,7.45,7.45,0,0,1-3.95-1,6.89,6.89,0,0,1-2.66-3,10.36,10.36,0,0,1-.94-4.57,9.12,9.12,0,0,1,2-6.31,7.14,7.14,0,0,1,5.63-2.27,7,7,0,0,1,5.52,2.31A9.08,9.08,0,0,1,272.11,91.69Zm-12.64,0a7.91,7.91,0,0,0,1.27,4.84,5,5,0,0,0,7.48,0,7.82,7.82,0,0,0,1.29-4.86,7.63,7.63,0,0,0-1.29-4.8,5.11,5.11,0,0,0-7.49,0A7.78,7.78,0,0,0,259.47,91.69Zm23.69,8.61a7.08,7.08,0,0,1-5.58-2.21,9.13,9.13,0,0,1-2-6.28,9.38,9.38,0,0,1,2-6.43,7.22,7.22,0,0,1,5.72-2.27,11.42,11.42,0,0,1,2.39.25,8.45,8.45,0,0,1,1.88.61l-.77,2.13a11.76,11.76,0,0,0-1.82-.54,8,8,0,0,0-1.74-.23q-5.06,0-5.06,6.45a7.68,7.68,0,0,0,1.23,4.69,4.32,4.32,0,0,0,3.66,1.64,11.17,11.17,0,0,0,4.26-.9v2.23A9.15,9.15,0,0,1,283.16,100.3Zm10.51-16.89V94.17a4.31,4.31,0,0,0,.92,3,3.75,3.75,0,0,0,2.89,1,4.72,4.72,0,0,0,3.8-1.42c.81-1,1.21-2.5,1.21-4.65V83.41H305V100h-2.07l-.36-2.22h-.14a5,5,0,0,1-2.15,1.87,7.08,7.08,0,0,1-3.12.65,6.38,6.38,0,0,1-4.54-1.44c-1-1-1.5-2.49-1.5-4.6V83.41ZM331.49,100V89.21a4.5,4.5,0,0,0-.84-3,3.27,3.27,0,0,0-2.64-1,4.23,4.23,0,0,0-3.46,1.35,6.39,6.39,0,0,0-1.12,4.15V100h-2.52V89.21a4.5,4.5,0,0,0-.84-3,3.28,3.28,0,0,0-2.65-1A4.14,4.14,0,0,0,314,86.66c-.73.94-1.09,2.49-1.09,4.64V100h-2.51V83.41h2l.41,2.27h.12a4.93,4.93,0,0,1,2-1.89,6.12,6.12,0,0,1,2.91-.68q3.89,0,5.08,2.81H323a5.41,5.41,0,0,1,2.15-2.06,6.73,6.73,0,0,1,3.21-.75,5.57,5.57,0,0,1,4.21,1.45Q334,86,334,89.18V100Zm14.72.3a7.64,7.64,0,0,1-5.82-2.24,8.69,8.69,0,0,1-2.12-6.22,9.65,9.65,0,0,1,2-6.37,6.58,6.58,0,0,1,5.32-2.36,6.22,6.22,0,0,1,4.93,2.06,7.82,7.82,0,0,1,1.82,5.4v1.59H340.88a6.57,6.57,0,0,0,1.47,4.43,5.12,5.12,0,0,0,3.95,1.52A13.35,13.35,0,0,0,351.6,97v2.24a12.64,12.64,0,0,1-5.39,1.07Zm-.68-15.09a4.16,4.16,0,0,0-3.2,1.3,6,6,0,0,0-1.39,3.61h8.67a5.49,5.49,0,0,0-1.06-3.64A3.72,3.72,0,0,0,345.53,85.21ZM368,100V89.27a4.33,4.33,0,0,0-.93-3,3.72,3.72,0,0,0-2.89-1,4.77,4.77,0,0,0-3.81,1.41c-.81.94-1.21,2.49-1.21,4.65V100h-2.51V83.41h2l.41,2.27h.12a5,5,0,0,1,2.16-1.89,6.92,6.92,0,0,1,3.11-.68A6.29,6.29,0,0,1,369,84.56q1.52,1.44,1.51,4.62V100ZM381,98.23a8.87,8.87,0,0,0,1.28-.09,9.54,9.54,0,0,0,1-.21v1.92a4.59,4.59,0,0,1-1.21.32,8.52,8.52,0,0,1-1.43.13q-4.81,0-4.81-5.07V85.36h-2.38V84.15l2.38-1,1.06-3.54h1.45v3.84h4.82v2h-4.82v9.77a3.4,3.4,0,0,0,.71,2.3A2.51,2.51,0,0,0,381,98.23Zm15.8,1.77-.5-2.36h-.12a7.19,7.19,0,0,1-2.48,2.12,7.69,7.69,0,0,1-3.08.54A5.56,5.56,0,0,1,386.76,99a4.64,4.64,0,0,1-1.39-3.62q0-5,8-5.26l2.82-.09V89a4.13,4.13,0,0,0-.85-2.88,3.4,3.4,0,0,0-2.68-.94A11,11,0,0,0,388,86.48l-.77-1.92a11.76,11.76,0,0,1,2.68-1,11.33,11.33,0,0,1,2.93-.38,6.33,6.33,0,0,1,4.39,1.31,5.49,5.49,0,0,1,1.44,4.23V100Zm-5.68-1.77a5.06,5.06,0,0,0,3.68-1.29,4.74,4.74,0,0,0,1.35-3.6v-1.5l-2.51.11a9,9,0,0,0-4.33.94A2.77,2.77,0,0,0,388,95.44a2.6,2.6,0,0,0,.82,2.08A3.45,3.45,0,0,0,391.13,98.23Zm18.09,0a9.11,9.11,0,0,0,1.29-.09,9.26,9.26,0,0,0,1-.21v1.92a4.37,4.37,0,0,1-1.21.32,8.41,8.41,0,0,1-1.42.13q-4.82,0-4.82-5.07V85.36h-2.37V84.15l2.37-1,1.06-3.54h1.46v3.84h4.81v2h-4.81v9.77a3.35,3.35,0,0,0,.71,2.3A2.47,2.47,0,0,0,409.22,98.23Zm8.11,1.77h-2.51V83.41h2.51Zm-2.72-21.09a1.64,1.64,0,0,1,.42-1.25,1.56,1.56,0,0,1,2.11,0,1.64,1.64,0,0,1,.44,1.25,1.73,1.73,0,0,1-.44,1.28,1.59,1.59,0,0,1-2.11,0A1.76,1.76,0,0,1,414.61,78.91ZM437,91.69a9.19,9.19,0,0,1-2,6.34,7.2,7.2,0,0,1-5.65,2.27,7.45,7.45,0,0,1-4-1,6.89,6.89,0,0,1-2.66-3,10.36,10.36,0,0,1-.94-4.57,9.07,9.07,0,0,1,2-6.31,7.14,7.14,0,0,1,5.63-2.27,7,7,0,0,1,5.52,2.31A9.08,9.08,0,0,1,437,91.69Zm-12.64,0a7.91,7.91,0,0,0,1.27,4.84,5,5,0,0,0,7.48,0,7.82,7.82,0,0,0,1.29-4.86,7.63,7.63,0,0,0-1.29-4.8,5.11,5.11,0,0,0-7.49,0A7.78,7.78,0,0,0,424.34,91.69ZM452.75,100V89.27a4.33,4.33,0,0,0-.92-3,3.74,3.74,0,0,0-2.89-1,4.74,4.74,0,0,0-3.81,1.41c-.81.94-1.22,2.49-1.22,4.65V100H441.4V83.41h2l.41,2.27H444a5.07,5.07,0,0,1,2.17-1.89,6.88,6.88,0,0,1,3.1-.68,6.27,6.27,0,0,1,4.51,1.45q1.51,1.44,1.52,4.62V100Z" transform="translate(0 0.04)" style="fill:#fff"/></svg>